<svg xmlns="http://www.w3.org/2000/svg" width="430" height="92" fill="none" viewBox="0 0 430 92">
  <path fill="#EAC796" d="m25.107 36.093-3.781 3.416C10.412 49.373 3.687 63.4.767 77.817-.92 86.145-3.359 96.796-6.817 110c-8.556 32.667 284.676 16.308 444.635 3.121 8.587-.708 16.49-4.814 22.056-11.392a32.57 32.57 0 0 0 4.798-34.493l-8.13-17.922c-3.532-7.786-5.392-17.255-12.394-22.16-7.295-5.11-21.21-9.654-45.965-9.654-20.312 0-37.305 3.06-50.449 6.981-18.918 5.644-39.772 9.4-58.56 3.338l-11.498-3.708a60 60 0 0 0-40.513 1.318l-2.68 1.061a60 60 0 0 1-53.329-4.557l-6.582-4.013a51.322 51.322 0 0 0-57.121 2.471l-3.345 2.46a43.943 43.943 0 0 1-42.784 5.222 43.944 43.944 0 0 0-46.215 8.02Z"/>
</svg>
