<svg xmlns="http://www.w3.org/2000/svg" width="430" height="645" fill="none" viewBox="0 0 430 645">
  <path fill="#EAC796" d="m20.764 468.256-45.39-102.727a100.004 100.004 0 0 1-6.986-22.9l-49.48-278.113C-91.994 3.242-44.876-53 17.36-53h325.204C397.794-53 442.5-8.228 442.5 47v527.966a61.323 61.323 0 0 1-30.829 53.204l-18.666 10.699c-18.153 10.405-41.284 4.61-52.388-13.124l-33.433-53.397c-5.994-9.573-20.564-7.152-23.141 3.845-3.125 13.339-22.237 12.97-24.845-.48l-13.093-67.521c-3.244-16.731-26.129-19.277-32.972-3.668-4.748 10.832-18.696 13.858-27.506 5.967l-32.831-29.407c-17.354-15.544-43.769-15.04-60.518 1.154-22.214 21.478-59.026 14.281-71.514-13.982Z"/>
</svg>
